<svg xmlns="http://www.w3.org/2000/svg" viewBox="0 0 1000 1000" xml:space="preserve"><path d="M990 500c0 94-201.2 295.5-488.9 295.5C220.9 795.5 10.7 597 10.7 500s210.2-295.5 488.9-295.5c290.7 0 490.4 197 490.4 295.5zM501.1 258.3c-129.7 0-235.5 107.4-235.5 241.8 0 134.3 105.8 241.7 235.5 241.7s235.5-107.4 235.5-241.7c0-132.9-105.8-241.8-235.5-241.8zm0 88c-83.5 0-150.5 68.6-150.5 153.7s67.1 153.7 150.5 153.7c83.5 0 150.5-68.7 150.5-153.7-1.4-85.1-68.5-153.7-150.5-153.7z"/><path d="m58.8 245.6 915.2 443c13 6.3 18.4 21.8 12.1 34.8l-11.4 23.5c-6.3 13-21.9 18.4-34.8 12.1L24.7 316c-13-6.3-18.4-21.9-12.1-34.8L24 257.8c6.2-13 21.8-18.4 34.8-12.2z"/></svg>