<svg xmlns="http://www.w3.org/2000/svg" width="50.788" height="50.723"><path d="M8.713 50.223A8.222 8.222 0 0 1 .5 42.011V17.5a8.222 8.222 0 0 1 8.213-8.213h24.511a8.222 8.222 0 0 1 8.212 8.213v24.511a8.222 8.222 0 0 1-8.212 8.213ZM4.5 17.5v24.511a4.217 4.217 0 0 0 4.214 4.212h24.51a4.217 4.217 0 0 0 4.212-4.212V17.5a4.218 4.218 0 0 0-4.212-4.213H8.713A4.218 4.218 0 0 0 4.5 17.5Zm37.575 19.936a4.219 4.219 0 0 0 4.214-4.213V11.745A7.254 7.254 0 0 0 39.043 4.5H17.564a4.217 4.217 0 0 0-4.212 4.214h-4A8.221 8.221 0 0 1 17.564.5h21.479a11.258 11.258 0 0 1 11.245 11.245v21.478a8.221 8.221 0 0 1-8.213 8.212Z" stroke="rgba(0,0,0,0)" stroke-miterlimit="10"/></svg>